<?xml version="1.0" encoding="UTF-8"?>
<svg width="4856px" height="1654px" viewBox="0 0 4856 1654" version="1.1" xmlns="http://www.w3.org/2000/svg" xmlns:xlink="http://www.w3.org/1999/xlink">
    <!-- Generator: Sketch 43.2 (39069) - http://www.bohemiancoding.com/sketch -->
    <title>@2xArtboard</title>
    <desc>Created with Sketch.</desc>
    <defs></defs>
    <g id="Page-1" stroke="none" stroke-width="1" fill="none" fill-rule="evenodd">
        <g id="Artboard">
            <g id="Group" transform="translate(185.000000, 289.000000)" stroke="#FFFFFF" stroke-width="20">
                <circle id="Oval" fill-opacity="0" fill="#D8D8D8" cx="550" cy="550" r="550"></circle>
                <path d="M1026,277 L81,829" id="Line" stroke-linecap="square"></path>
                <path d="M440.666667,636 L440.666667,1079.00451" id="Line" stroke-linecap="square"></path>
                <path d="M672,16 L672,475" id="Line" stroke-linecap="square"></path>
                <path d="M661,217 L346.639733,36.5903715" id="Line" stroke-linecap="square"></path>
                <path d="M733,1069 L443,891" id="Line" stroke-linecap="square"></path>
            </g>
            <path d="M1742.52,707.42 C1734.95996,696.979948 1724.70006,688.430033 1711.74,681.77 C1698.77994,675.109967 1684.20008,671.78 1668,671.78 C1659.35996,671.78 1650.63004,672.949988 1641.81,675.29 C1632.98996,677.630012 1624.98004,681.409974 1617.78,686.63 C1610.57996,691.850026 1604.73002,698.329961 1600.23,706.07 C1595.72998,713.810039 1593.48,723.079946 1593.48,733.88 C1593.48,744.320052 1595.54998,753.049965 1599.69,760.07 C1603.83002,767.090035 1609.40996,773.029976 1616.43,777.89 C1623.45004,782.750024 1631.72995,786.889983 1641.27,790.31 C1650.81005,793.730017 1660.97995,797.239982 1671.78,800.84 C1684.74006,804.80002 1697.87993,809.299975 1711.2,814.34 C1724.52007,819.380025 1736.57995,826.039959 1747.38,834.32 C1758.18005,842.600041 1766.99997,852.949938 1773.84,865.37 C1780.68003,877.790062 1784.1,893.539905 1784.1,912.62 C1784.1,932.420099 1780.41004,949.609927 1773.03,964.19 C1765.64996,978.770073 1755.84006,990.829952 1743.6,1000.37 C1731.35994,1009.91005 1717.23008,1017.01998 1701.21,1021.7 C1685.18992,1026.38002 1668.72008,1028.72 1651.8,1028.72 C1627.67988,1028.72 1604.37011,1024.04005 1581.87,1014.68 C1559.36989,1005.31995 1540.74007,991.460092 1525.98,973.1 L1567.56,938 C1576.56004,951.320067 1588.61992,962.119959 1603.74,970.4 C1618.86008,978.680041 1635.23991,982.82 1652.88,982.82 C1661.88004,982.82 1670.87996,981.560013 1679.88,979.04 C1688.88005,976.519987 1697.06996,972.560027 1704.45,967.16 C1711.83004,961.759973 1717.85998,955.010041 1722.54,946.91 C1727.22002,938.80996 1729.56,929.000058 1729.56,917.48 C1729.56,905.959942 1727.13002,896.330039 1722.27,888.59 C1717.40998,880.849961 1710.84004,874.280027 1702.56,868.88 C1694.27996,863.479973 1684.65005,858.890019 1673.67,855.11 C1662.68995,851.329981 1651.08006,847.46002 1638.84,843.5 C1626.59994,839.899982 1614.54006,835.490026 1602.66,830.27 C1590.77994,825.049974 1580.16005,818.39004 1570.8,810.29 C1561.43995,802.189959 1553.88003,792.200059 1548.12,780.32 C1542.35997,768.439941 1539.48,753.680088 1539.48,736.04 C1539.48,716.959905 1543.34996,700.580068 1551.09,686.9 C1558.83004,673.219932 1568.90994,661.880045 1581.33,652.88 C1593.75006,643.879955 1607.78992,637.310021 1623.45,633.17 C1639.11008,629.029979 1654.85992,626.96 1670.7,626.96 C1693.02011,626.96 1713.8999,630.91996 1733.34,638.84 C1752.7801,646.76004 1768.43994,657.379933 1780.32,670.7 L1742.52,707.42 Z M1993.62,1019 L1940.16,1019 L1940.16,683.66 L1817.58,683.66 L1817.58,636.68 L2116.2,636.68 L2116.2,683.66 L1993.62,683.66 L1993.62,1019 Z M2220.42,1019 L2166.96,1019 L2166.96,636.68 L2289.54,636.68 C2307.90009,636.68 2325.35992,638.569981 2341.92,642.35 C2358.48008,646.130019 2372.96994,652.159959 2385.39,660.44 C2397.81006,668.720041 2407.61996,679.609932 2414.82,693.11 C2422.02004,706.610067 2425.62,723.079903 2425.62,742.52 C2425.62,770.60014 2416.98009,793.279914 2399.7,810.56 C2382.41991,827.840086 2360.10014,838.819977 2332.74,843.5 L2439.66,1019 L2374.86,1019 L2277.66,848.9 L2220.42,848.9 L2220.42,1019 Z M2220.42,804.08 L2281.98,804.08 C2294.58006,804.08 2306.27995,803.000011 2317.08,800.84 C2327.88005,798.679989 2337.32996,795.170024 2345.43,790.31 C2353.53004,785.449976 2359.91998,779.150039 2364.6,771.41 C2369.28002,763.669961 2371.62,754.040058 2371.62,742.52 C2371.62,730.999942 2369.28002,721.370039 2364.6,713.63 C2359.91998,705.889961 2353.71004,699.680023 2345.97,695 C2338.22996,690.319977 2329.14005,686.99001 2318.7,685.01 C2308.25995,683.02999 2297.28006,682.04 2285.76,682.04 L2220.42,682.04 L2220.42,804.08 Z M2514.18,1019 L2454.78,1019 L2620.56,636.68 L2669.16,636.68 L2833.32,1019 L2772.84,1019 L2733.96,925.04 L2552.52,925.04 L2514.18,1019 Z M2571.42,878.06 L2714.52,878.06 L2643.24,698.78 L2571.42,878.06 Z M3210.24,959.6 C3195.11992,980.120103 3175.50012,996.769936 3151.38,1009.55 C3127.25988,1022.33006 3098.28017,1028.72 3064.44,1028.72 C3035.27985,1028.72 3008.37012,1023.77005 2983.71,1013.87 C2959.04988,1003.96995 2937.81009,990.110089 2919.99,972.29 C2902.16991,954.469911 2888.22005,933.230123 2878.14,908.57 C2868.05995,883.909877 2863.02,856.820148 2863.02,827.3 C2863.02,797.419851 2868.14995,770.150123 2878.41,745.49 C2888.67005,720.829877 2902.88991,699.770087 2921.07,682.31 C2939.25009,664.849913 2960.75988,651.260049 2985.6,641.54 C3010.44012,631.819951 3037.43985,626.96 3066.6,626.96 C3079.56006,626.96 3092.69993,628.219987 3106.02,630.74 C3119.34007,633.260013 3132.11994,637.039975 3144.36,642.08 C3156.60006,647.120025 3167.75995,653.329963 3177.84,660.71 C3187.92005,668.090037 3196.55996,676.639951 3203.76,686.36 L3161.64,718.76 C3152.27995,705.799935 3139.05009,695.090042 3121.95,686.63 C3104.84991,678.169958 3086.4001,673.94 3066.6,673.94 C3044.27989,673.94 3024.21009,677.98996 3006.39,686.09 C2988.56991,694.190041 2973.36006,705.25993 2960.76,719.3 C2948.15994,733.34007 2938.44003,749.629907 2931.6,768.17 C2924.75997,786.710093 2921.34,806.419896 2921.34,827.3 C2921.34,848.900108 2924.66997,869.059906 2931.33,887.78 C2937.99003,906.500094 2947.52994,922.789931 2959.95,936.65 C2972.37006,950.510069 2987.48991,961.39996 3005.31,969.32 C3023.13009,977.24004 3043.01989,981.2 3064.98,981.2 C3086.58011,981.2 3106.19991,976.880043 3123.84,968.24 C3141.48009,959.599957 3156.05994,947.000083 3167.58,930.44 L3210.24,959.6 Z M3398.7,1019 L3345.24,1019 L3345.24,683.66 L3222.66,683.66 L3222.66,636.68 L3521.28,636.68 L3521.28,683.66 L3398.7,683.66 L3398.7,1019 Z M3580.68,1094.6 L3549.9,1094.6 L3586.08,967.7 L3624.42,967.7 L3580.68,1094.6 Z M3890.64,1019 L3851.76,1019 L3851.76,636.68 L3890.64,636.68 L3890.64,1019 Z M4022.94,766.28 C4023.66,773.120034 4024.2,780.679959 4024.56,788.96 C4024.92,797.240041 4025.1,804.079973 4025.1,809.48 L4026.18,809.48 C4033.38004,794.719926 4045.07992,782.750046 4061.28,773.57 C4077.48008,764.389954 4094.57991,759.8 4112.58,759.8 C4144.62016,759.8 4168.64992,769.339905 4184.67,788.42 C4200.69008,807.500095 4208.7,832.699843 4208.7,864.02 L4208.7,1019 L4171.98,1019 L4171.98,879.14 C4171.98,865.819933 4170.90001,853.760054 4168.74,842.96 C4166.57999,832.159946 4162.89003,822.890039 4157.67,815.15 C4152.44997,807.409961 4145.43004,801.380022 4136.61,797.06 C4127.78996,792.739978 4116.72007,790.58 4103.4,790.58 C4093.67995,790.58 4084.23005,792.55998 4075.05,796.52 C4065.86995,800.48002 4057.68004,806.50996 4050.48,814.61 C4043.27996,822.71004 4037.52002,832.969938 4033.2,845.39 C4028.87998,857.810062 4026.72,872.479915 4026.72,889.4 L4026.72,1019 L3990,1019 L3990,821.9 C3990,815.059966 3989.82,806.240054 3989.46,795.44 C3989.1,784.639946 3988.56,774.920043 3987.84,766.28 L4022.94,766.28 Z M4485.72,824.06 C4479.59997,814.339951 4470.69006,806.330032 4458.99,800.03 C4447.28994,793.729969 4434.60007,790.58 4420.92,790.58 C4406.15993,790.58 4392.84006,793.189974 4380.96,798.41 C4369.07994,803.630026 4358.91004,810.829954 4350.45,820.01 C4341.98996,829.190046 4335.51002,839.989938 4331.01,852.41 C4326.50998,864.830062 4324.26,878.239928 4324.26,892.64 C4324.26,907.040072 4326.50998,920.359939 4331.01,932.6 C4335.51002,944.840061 4341.89996,955.549954 4350.18,964.73 C4358.46004,973.910046 4368.53994,981.109974 4380.42,986.33 C4392.30006,991.550026 4405.61993,994.16 4420.38,994.16 C4436.58008,994.16 4450.25994,991.100031 4461.42,984.98 C4472.58006,978.859969 4481.75996,970.940049 4488.96,961.22 L4516.5,981.74 C4505.69995,995.060067 4492.47008,1005.67996 4476.81,1013.6 C4461.14992,1021.52004 4442.34011,1025.48 4420.38,1025.48 C4399.8599,1025.48 4381.32008,1022.15003 4364.76,1015.49 C4348.19992,1008.82997 4334.07006,999.560059 4322.37,987.68 C4310.66994,975.799941 4301.58003,961.760081 4295.1,945.56 C4288.61997,929.359919 4285.38,911.720095 4285.38,892.64 C4285.38,873.559905 4288.61997,855.920081 4295.1,839.72 C4301.58003,823.519919 4310.66994,809.480059 4322.37,797.6 C4334.07006,785.719941 4348.19992,776.450033 4364.76,769.79 C4381.32008,763.129967 4399.8599,759.8 4420.38,759.8 C4437.30008,759.8 4454.48991,763.489963 4471.95,770.87 C4489.41009,778.250037 4503.53995,789.139928 4514.34,803.54 L4485.72,824.06 Z M4624.5,993.08 C4624.5,1000.64004 4621.80003,1007.38997 4616.4,1013.33 C4610.99997,1019.27003 4603.98004,1022.24 4595.34,1022.24 C4586.69996,1022.24 4579.68003,1019.27003 4574.28,1013.33 C4568.87997,1007.38997 4566.18,1000.64004 4566.18,993.08 C4566.18,985.519962 4568.87997,978.77003 4574.28,972.83 C4579.68003,966.88997 4586.69996,963.92 4595.34,963.92 C4603.98004,963.92 4610.99997,966.88997 4616.4,972.83 C4621.80003,978.77003 4624.5,985.519962 4624.5,993.08 Z" id="STRACT,-Inc." fill="#FFFFFF"></path>
        </g>
    </g>
</svg>