<svg width="4856" height="1654" viewBox="0 0 4856 1654" xmlns="http://www.w3.org/2000/svg"><title>@2xArtboard</title><g fill="none" fill-rule="evenodd"><g transform="translate(185 289)" stroke="#FFF" stroke-width="20"><circle fill="none" cx="550" cy="550" r="550"/><path d="M1026 277L81 829M440.667 636v443.005M672 16v459M661 217L346.64 36.59M733 1069L443 891" stroke-linecap="square"/></g><path d="M1742.52 707.42c-7.56-10.44-17.82-18.99-30.78-25.65s-27.54-9.99-43.74-9.99c-8.64 0-17.37 1.17-26.19 3.51s-16.83 6.12-24.03 11.34c-7.2 5.22-13.05 11.7-17.55 19.44-4.5 7.74-6.75 17.01-6.75 27.81 0 10.44 2.07 19.17 6.21 26.19 4.14 7.02 9.72 12.96 16.74 17.82 7.02 4.86 15.3 9 24.84 12.42s19.71 6.93 30.51 10.53c12.96 3.96 26.1 8.46 39.42 13.5 13.32 5.04 25.38 11.7 36.18 19.98 10.8 8.28 19.62 18.63 26.46 31.05 6.84 12.42 10.26 28.17 10.26 47.25 0 19.8-3.69 36.99-11.07 51.57-7.38 14.58-17.19 26.64-29.43 36.18-12.24 9.54-26.37 16.65-42.39 21.33s-32.49 7.02-49.41 7.02c-24.12 0-47.43-4.68-69.93-14.04-22.5-9.36-41.13-23.22-55.89-41.58l41.58-35.1c9 13.32 21.06 24.12 36.18 32.4 15.12 8.28 31.5 12.42 49.14 12.42 9 0 18-1.26 27-3.78 9-2.52 17.19-6.48 24.57-11.88 7.38-5.4 13.41-12.15 18.09-20.25s7.02-17.91 7.02-29.43-2.43-21.15-7.29-28.89c-4.86-7.74-11.43-14.31-19.71-19.71-8.28-5.4-17.91-9.99-28.89-13.77-10.98-3.78-22.59-7.65-34.83-11.61-12.24-3.6-24.3-8.01-36.18-13.23-11.88-5.22-22.5-11.88-31.86-19.98s-16.92-18.09-22.68-29.97c-5.76-11.88-8.64-26.64-8.64-44.28 0-19.08 3.87-35.46 11.61-49.14 7.74-13.68 17.82-25.02 30.24-34.02 12.42-9 26.46-15.57 42.12-19.71 15.66-4.14 31.41-6.21 47.25-6.21 22.32 0 43.2 3.96 62.64 11.88 19.44 7.92 35.1 18.54 46.98 31.86l-37.8 36.72zm251.1 311.58h-53.46V683.66h-122.58v-46.98h298.62v46.98h-122.58V1019zm226.8 0h-53.46V636.68h122.58c18.36 0 35.82 1.89 52.38 5.67 16.56 3.78 31.05 9.81 43.47 18.09 12.42 8.28 22.23 19.17 29.43 32.67 7.2 13.5 10.8 29.97 10.8 49.41 0 28.08-8.64 50.76-25.92 68.04-17.28 17.28-39.6 28.26-66.96 32.94l106.92 175.5h-64.8l-97.2-170.1h-57.24V1019zm0-214.92h61.56c12.6 0 24.3-1.08 35.1-3.24s20.25-5.67 28.35-10.53c8.1-4.86 14.49-11.16 19.17-18.9 4.68-7.74 7.02-17.37 7.02-28.89s-2.34-21.15-7.02-28.89c-4.68-7.74-10.89-13.95-18.63-18.63-7.74-4.68-16.83-8.01-27.27-9.99-10.44-1.98-21.42-2.97-32.94-2.97h-65.34v122.04zM2514.18 1019h-59.4l165.78-382.32h48.6L2833.32 1019h-60.48l-38.88-93.96h-181.44l-38.34 93.96zm57.24-140.94h143.1l-71.28-179.28-71.82 179.28zm638.82 81.54c-15.12 20.52-34.74 37.17-58.86 49.95-24.12 12.78-53.1 19.17-86.94 19.17-29.16 0-56.07-4.95-80.73-14.85-24.66-9.9-45.9-23.76-63.72-41.58-17.82-17.82-31.77-39.06-41.85-63.72-10.08-24.66-15.12-51.75-15.12-81.27 0-29.88 5.13-57.15 15.39-81.81 10.26-24.66 24.48-45.72 42.66-63.18 18.18-17.46 39.69-31.05 64.53-40.77 24.84-9.72 51.84-14.58 81-14.58 12.96 0 26.1 1.26 39.42 3.78 13.32 2.52 26.1 6.3 38.34 11.34 12.24 5.04 23.4 11.25 33.48 18.63 10.08 7.38 18.72 15.93 25.92 25.65l-42.12 32.4c-9.36-12.96-22.59-23.67-39.69-32.13-17.1-8.46-35.55-12.69-55.35-12.69-22.32 0-42.39 4.05-60.21 12.15-17.82 8.1-33.03 19.17-45.63 33.21-12.6 14.04-22.32 30.33-29.16 48.87s-10.26 38.25-10.26 59.13c0 21.6 3.33 41.76 9.99 60.48s16.2 35.01 28.62 48.87c12.42 13.86 27.54 24.75 45.36 32.67 17.82 7.92 37.71 11.88 59.67 11.88 21.6 0 41.22-4.32 58.86-12.96s32.22-21.24 43.74-37.8l42.66 29.16zm188.46 59.4h-53.46V683.66h-122.58v-46.98h298.62v46.98H3398.7V1019zm181.98 75.6h-30.78l36.18-126.9h38.34l-43.74 126.9zm309.96-75.6h-38.88V636.68h38.88V1019zm132.3-252.72c.72 6.84 1.26 14.4 1.62 22.68.36 8.28.54 15.12.54 20.52h1.08c7.2-14.76 18.9-26.73 35.1-35.91 16.2-9.18 33.3-13.77 51.3-13.77 32.04 0 56.07 9.54 72.09 28.62 16.02 19.08 24.03 44.28 24.03 75.6V1019h-36.72V879.14c0-13.32-1.08-25.38-3.24-36.18s-5.85-20.07-11.07-27.81c-5.22-7.74-12.24-13.77-21.06-18.09-8.82-4.32-19.89-6.48-33.21-6.48-9.72 0-19.17 1.98-28.35 5.94-9.18 3.96-17.37 9.99-24.57 18.09-7.2 8.1-12.96 18.36-17.28 30.78-4.32 12.42-6.48 27.09-6.48 44.01V1019H3990V821.9c0-6.84-.18-15.66-.54-26.46-.36-10.8-.9-20.52-1.62-29.16h35.1zm462.78 57.78c-6.12-9.72-15.03-17.73-26.73-24.03-11.7-6.3-24.39-9.45-38.07-9.45-14.76 0-28.08 2.61-39.96 7.83-11.88 5.22-22.05 12.42-30.51 21.6-8.46 9.18-14.94 19.98-19.44 32.4-4.5 12.42-6.75 25.83-6.75 40.23 0 14.4 2.25 27.72 6.75 39.96 4.5 12.24 10.89 22.95 19.17 32.13 8.28 9.18 18.36 16.38 30.24 21.6 11.88 5.22 25.2 7.83 39.96 7.83 16.2 0 29.88-3.06 41.04-9.18 11.16-6.12 20.34-14.04 27.54-23.76l27.54 20.52c-10.8 13.32-24.03 23.94-39.69 31.86-15.66 7.92-34.47 11.88-56.43 11.88-20.52 0-39.06-3.33-55.62-9.99-16.56-6.66-30.69-15.93-42.39-27.81-11.7-11.88-20.79-25.92-27.27-42.12-6.48-16.2-9.72-33.84-9.72-52.92s3.24-36.72 9.72-52.92c6.48-16.2 15.57-30.24 27.27-42.12 11.7-11.88 25.83-21.15 42.39-27.81 16.56-6.66 35.1-9.99 55.62-9.99 16.92 0 34.11 3.69 51.57 11.07 17.46 7.38 31.59 18.27 42.39 32.67l-28.62 20.52zm138.78 169.02c0 7.56-2.7 14.31-8.1 20.25-5.4 5.94-12.42 8.91-21.06 8.91-8.64 0-15.66-2.97-21.06-8.91-5.4-5.94-8.1-12.69-8.1-20.25 0-7.56 2.7-14.31 8.1-20.25 5.4-5.94 12.42-8.91 21.06-8.91 8.64 0 15.66 2.97 21.06 8.91 5.4 5.94 8.1 12.69 8.1 20.25z" fill="#FFF"/></g></svg>